<svg width="2745" height="1434" viewBox="0 0 2745 1434" fill="none" xmlns="http://www.w3.org/2000/svg">
<g id="Frame 1">
<rect id="bottom-line" x="1" y="1144" width="2743" height="115" fill="black"/>
<path id="m-letter" d="M2211.56 1078.95L2224.21 344.322H2397.62L2478.01 771.493L2564.71 344.322H2731.8L2744.45 1078.95H2629.74L2616.19 590.104L2531.29 1078.95H2429.23L2338.91 586.477L2328.08 1078.95H2211.56Z" fill="black"/>
<path id="f-letter" d="M1867.82 1078.95V344.322H2183.93V454.063H2029.49V639.079H2164.06V752.448H2029.49V1078.95H1867.82Z" fill="black"/>
<path id="k-letter" d="M1258.54 1078.95V344.322H1420.21V644.521L1543.05 344.322H1701.11L1565.63 676.264L1707.43 1078.95H1543.05L1437.37 754.261L1420.21 783.284V1078.95H1258.54Z" fill="black"/>
<path id="n-letter" d="M797.426 1078.95V344.322H911.228L1061.16 698.031V344.322H1194.83V1078.95H1085.54L935.614 698.031V1078.95H797.426Z" fill="black"/>
<path id="u-letter" d="M522.952 1089.83C466.954 1089.83 422.998 1080.76 391.086 1062.62C359.775 1043.88 337.797 1016.97 325.153 981.906C312.508 946.233 306.186 902.699 306.186 851.306V344.322H466.051V875.793C466.051 890.909 467.255 906.025 469.663 921.141C472.072 936.257 477.19 948.651 485.018 958.326C493.447 968 506.092 972.837 522.952 972.837C540.413 972.837 553.058 968 560.886 958.326C568.713 948.651 573.531 936.257 575.337 921.141C577.745 906.025 578.95 890.909 578.95 875.793V344.322H739.718V851.306C739.718 902.699 733.094 946.233 719.848 981.906C707.203 1016.97 685.225 1043.88 653.915 1062.62C622.604 1080.76 578.95 1089.83 522.952 1089.83Z" fill="black"/>
<path id="j-letter" d="M0.789062 1089.74V977.616C16.8728 977.616 30.5738 976.719 41.892 974.925C53.2103 973.131 62.1457 969.842 68.6983 965.058C75.251 959.676 80.0165 952.202 82.995 942.634C85.9735 932.468 87.4627 919.612 87.4627 904.064V344.355H247.407V911.24C247.407 950.707 242.343 983.894 232.217 1010.8C222.686 1037.11 205.708 1056.85 181.285 1070C156.861 1083.16 122.609 1089.74 78.5273 1089.74H0.789062Z" fill="black"/>
<rect id="top-line" x="1" y="162" width="2743" height="116" fill="black"/>
</g>
</svg>
